<svg xmlns="http://www.w3.org/2000/svg" width="66" height="65" viewBox="0 0 66 65" fill="none"><g clip-path="url(#clip0_59_28231)"><path d="M58.7783 4.48276V7.84483H7.22656V4.48276C7.22656 2.007 9.23356 0 11.7093 0H54.2955C56.7713 0 58.7783 2.007 58.7783 4.48276Z" fill="#FB9191"></path><path d="M11.707 19.0508H54.2932V59.3956H11.707V19.0508Z" fill="#464F5D"></path><path d="M43.0894 51.5511C42.4705 51.5511 41.9688 51.0493 41.9688 50.4304C41.9688 49.8114 42.4705 49.3097 43.0894 49.3097C47.1497 49.3097 47.8994 47.7194 48.6525 45.1004C48.7412 44.7884 48.6758 44.4529 48.4766 44.1971C48.2346 43.8817 47.8576 43.6997 47.4601 43.7062H43.0894C42.4705 43.7062 41.9688 43.2045 41.9688 42.5855C41.9688 41.9666 42.4705 41.4648 43.0894 41.4648H47.4601C48.5588 41.4638 49.595 41.9757 50.2619 42.8489C50.8862 43.6665 51.0865 44.7315 50.802 45.7201C49.9256 48.793 48.6682 51.5511 43.0894 51.5511Z" fill="#BDC3C7"></path><path d="M61.0189 58.275V61.6371C61.0189 63.4939 59.5136 64.9991 57.6568 64.9991H8.34644C6.48962 64.9991 4.98438 63.4939 4.98438 61.6371V58.275C4.98438 57.656 5.48612 57.1543 6.10506 57.1543H59.8982C60.5171 57.1543 61.0189 57.656 61.0189 58.275Z" fill="#FB9191"></path><path d="M58.7783 5.60352V20.1725C58.7783 20.7914 58.2765 21.2932 57.6576 21.2932H8.34725C7.72831 21.2932 7.22656 20.7914 7.22656 20.1725V5.60352H58.7783Z" fill="#BDC3C7"></path><path d="M45.331 21.293L43.2129 25.5404C42.4487 27.0557 40.8979 28.0131 39.2008 28.0171H26.806C25.1089 28.0131 23.558 27.0557 22.7939 25.5404L20.6758 21.293H45.331Z" fill="#7F8C8D"></path><path d="M38.6053 28.0176L35.5346 35.1788C35.3593 35.5929 34.9533 35.862 34.5036 35.8624H31.5002C31.0505 35.862 30.6445 35.5929 30.4691 35.1788L27.3984 28.0176H38.6053Z" fill="#95A5A5"></path><path d="M39.7252 10.0859H26.2769C25.658 10.0859 25.1562 10.5877 25.1562 11.2066V15.6894C25.1562 16.3083 25.658 16.8101 26.2769 16.8101H39.7252C40.3442 16.8101 40.8459 16.3083 40.8459 15.6894V11.2066C40.8459 10.5877 40.3442 10.0859 39.7252 10.0859Z" fill="#81CCB8"></path><path d="M47.5695 11.2062H46.4488C45.8299 11.2062 45.3281 10.7045 45.3281 10.0855C45.3281 9.46659 45.8299 8.96484 46.4488 8.96484H47.5695C48.1884 8.96484 48.6902 9.46659 48.6902 10.0855C48.6902 10.7045 48.1884 11.2062 47.5695 11.2062Z" fill="#7F8284"></path><path d="M53.1711 11.2062H52.0504C51.4314 11.2062 50.9297 10.7045 50.9297 10.0855C50.9297 9.46659 51.4314 8.96484 52.0504 8.96484H53.1711C53.79 8.96484 54.2918 9.46659 54.2918 10.0855C54.2918 10.7045 53.79 11.2062 53.1711 11.2062Z" fill="#7F8284"></path><path d="M47.5695 14.5676H46.4488C45.8299 14.5676 45.3281 14.0658 45.3281 13.4469C45.3281 12.8279 45.8299 12.3262 46.4488 12.3262H47.5695C48.1884 12.3262 48.6902 12.8279 48.6902 13.4469C48.6902 14.0658 48.1884 14.5676 47.5695 14.5676Z" fill="#7F8284"></path><path d="M53.1711 14.5676H52.0504C51.4314 14.5676 50.9297 14.0658 50.9297 13.4469C50.9297 12.8279 51.4314 12.3262 52.0504 12.3262H53.1711C53.79 12.3262 54.2918 12.8279 54.2918 13.4469C54.2918 14.0658 53.79 14.5676 53.1711 14.5676Z" fill="#7F8284"></path><path d="M47.5695 17.9308H46.4488C45.8299 17.9308 45.3281 17.4291 45.3281 16.8101C45.3281 16.1912 45.8299 15.6895 46.4488 15.6895H47.5695C48.1884 15.6895 48.6902 16.1912 48.6902 16.8101C48.6902 17.4291 48.1884 17.9308 47.5695 17.9308Z" fill="#7F8284"></path><path d="M53.1711 17.9308H52.0504C51.4314 17.9308 50.9297 17.4291 50.9297 16.8101C50.9297 16.1912 51.4314 15.6895 52.0504 15.6895H53.1711C53.79 15.6895 54.2918 16.1912 54.2918 16.8101C54.2918 17.4291 53.79 17.9308 53.1711 17.9308Z" fill="#7F8284"></path><path d="M43.0865 41.4664V50.4319C43.0865 54.1455 40.076 57.156 36.3623 57.156H29.6382C25.9246 57.156 22.9141 54.1455 22.9141 50.4319V41.4664C22.9141 40.8475 23.4158 40.3457 24.0348 40.3457H41.9658C42.5847 40.3457 43.0865 40.8475 43.0865 41.4664Z" fill="#ECF0F1"></path><path d="M28.5175 45.9488C28.5175 46.5678 28.0158 47.0695 27.3968 47.0695H22.9141V44.8281H27.3968C28.0158 44.8281 28.5175 45.3299 28.5175 45.9488Z" fill="#BDC3C7"></path><path d="M43.0893 44.8281V47.0695H31.8824C31.2635 47.0695 30.7617 46.5678 30.7617 45.9488C30.7617 45.3299 31.2635 44.8281 31.8824 44.8281H43.0893Z" fill="#BDC3C7"></path><path d="M39.7248 17.9304H26.2765C25.0387 17.9304 24.0352 16.9269 24.0352 15.689V11.2062C24.0352 9.96834 25.0387 8.96484 26.2765 8.96484H39.7248C40.9627 8.96484 41.9662 9.96834 41.9662 11.2062V15.689C41.9662 16.9269 40.9627 17.9304 39.7248 17.9304ZM26.2765 11.2062V15.689H39.7248V11.2062H26.2765Z" fill="#7F8284"></path><path d="M16.1894 19.0526C13.0947 19.0526 10.5859 16.5438 10.5859 13.4492C10.5859 10.3545 13.0947 7.8457 16.1894 7.8457C19.2841 7.8457 21.7928 10.3545 21.7928 13.4492C21.7897 16.5426 19.2828 19.0495 16.1894 19.0526ZM16.1894 10.6474C14.642 10.6474 13.3877 11.9018 13.3877 13.4492C13.3877 14.9965 14.642 16.2509 16.1894 16.2509C17.7367 16.2509 18.9911 14.9965 18.9911 13.4492C18.9911 11.9018 17.7367 10.6474 16.1894 10.6474Z" fill="#464F5D"></path><path d="M16.1902 16.8101C18.047 16.8101 19.5523 15.3048 19.5523 13.448C19.5523 11.5912 18.047 10.0859 16.1902 10.0859C14.3334 10.0859 12.8281 11.5912 12.8281 13.448C12.8281 15.3048 14.3334 16.8101 16.1902 16.8101Z" fill="#ECF0F1"></path></g><defs><clipPath id="clip0_59_28231"><rect width="65" height="65" fill="white" transform="translate(0.5)"></rect></clipPath></defs></svg>