<svg xmlns="http://www.w3.org/2000/svg" width="66" height="65" viewBox="0 0 66 65" fill="none"><g clip-path="url(#clip0_59_28255)"><path d="M13.8828 60.4102V63.6926C13.8828 64.4151 14.4685 65.0003 15.191 65.0003H50.8514C51.5739 65.0003 52.1591 64.4151 52.1591 63.6926V60.4102H13.8828Z" fill="#FFCD34"></path><path d="M13.8828 60.4102H52.1591V62.7052H13.8828V60.4102Z" fill="#E69012"></path><path d="M10.6563 58.4658V1.94347C10.6563 0.870321 11.5266 0 12.5997 0H53.4409C54.5145 0 55.3848 0.870321 55.3848 1.94347V58.4658C55.3848 59.5394 54.5145 60.4097 53.4409 60.4097H12.5997C11.5266 60.4097 10.6563 59.5394 10.6563 58.4658Z" fill="#E9E9EA"></path><path d="M53.4403 0H50.3672C51.4403 0 52.3107 0.870321 52.3107 1.94347V58.4658C52.3107 59.5394 51.4403 60.4097 50.3672 60.4097H53.4403C54.514 60.4097 55.3843 59.5394 55.3843 58.4658V1.94347C55.3843 0.870321 54.514 0 53.4403 0Z" fill="#C5C4CC"></path><path d="M53.4409 0H12.5997C11.5266 0 10.6562 0.870321 10.6562 1.94347V47.5404H55.3848V1.94347C55.3848 0.870321 54.5145 0 53.4409 0Z" fill="#FFCD34"></path><path d="M53.4403 0H50.3672C51.4403 0 52.3107 0.870321 52.3107 1.94347V47.5404H55.3843V1.94347C55.3843 0.870321 54.514 0 53.4403 0Z" fill="#E69012"></path><path d="M20.9883 55.8061V52.1443C20.9883 51.8552 21.2228 51.6211 21.5115 51.6211H38.5137C38.8028 51.6211 39.0369 51.8552 39.0369 52.1443V55.8061C39.0369 56.0952 38.8028 56.3293 38.5137 56.3293H21.5115C21.2228 56.3293 20.9883 56.0952 20.9883 55.8061Z" fill="#6A7193"></path><path d="M15.1016 42.7017V5.23179C15.1016 4.79837 15.4527 4.44727 15.8861 4.44727H44.1356C44.569 4.44727 44.9201 4.79837 44.9201 5.23179V42.7017C44.9201 43.1352 44.569 43.4863 44.1356 43.4863H15.8861C15.4527 43.4863 15.1016 43.1352 15.1016 42.7017Z" fill="#C8E7F7"></path><path d="M48.0312 26.6278V28.1433C48.0312 28.5788 48.3843 28.9313 48.8193 28.9313H51.4867C51.9217 28.9313 52.2747 28.5788 52.2747 28.1433V26.6278C52.2747 26.1929 51.9217 25.8398 51.4867 25.8398H48.8193C48.3843 25.8398 48.0312 26.1929 48.0312 26.6278Z" fill="#C8E7F7"></path><path d="M48.0312 32.4853V34.0008C48.0312 34.4362 48.3843 34.7888 48.8193 34.7888H51.4867C51.9217 34.7888 52.2747 34.4362 52.2747 34.0008V32.4853C52.2747 32.0504 51.9217 31.6973 51.4867 31.6973H48.8193C48.3843 31.6973 48.0312 32.0499 48.0312 32.4853Z" fill="#ED5176"></path><path d="M48.0312 13.4638V21.5863C48.0312 22.0217 48.3843 22.3743 48.8193 22.3743H51.4867C51.9217 22.3743 52.2747 22.0217 52.2747 21.5863V13.4638C52.2747 13.0284 51.9217 12.6758 51.4867 12.6758H48.8193C48.3843 12.6758 48.0312 13.0284 48.0312 13.4638Z" fill="#AED559"></path><path d="M23.8703 10.4766H21.24C20.7387 10.4766 20.332 10.8832 20.332 11.3851V17.4024C20.332 17.9043 20.7387 18.3109 21.24 18.3109H23.8703C24.3717 18.3109 24.7784 17.9043 24.7784 17.4024V11.3851C24.7789 10.8832 24.3722 10.4766 23.8703 10.4766Z" fill="#8CBCD6"></path><path d="M32.4368 10.4766H29.8064C29.3051 10.4766 28.8984 10.8832 28.8984 11.3851V17.4024C28.8984 17.9043 29.3051 18.3109 29.8064 18.3109H32.4368C32.9386 18.3109 33.3453 17.9043 33.3453 17.4024V11.3851C33.3453 10.8832 32.9386 10.4766 32.4368 10.4766Z" fill="#8CBCD6"></path><path d="M23.0857 26.7148H20.4554C19.9535 26.7148 19.5469 27.1215 19.5469 27.6234V33.6407C19.5469 34.1426 19.9535 34.5492 20.4554 34.5492H23.0857C23.5871 34.5492 23.9937 34.1426 23.9937 33.6407V27.6234C23.9937 27.1215 23.5871 26.7148 23.0857 26.7148Z" fill="#8CBCD6"></path><path d="M31.3279 26.7148H28.6976C28.1957 26.7148 27.7891 27.1215 27.7891 27.6234V33.6407C27.7891 34.1426 28.1957 34.5492 28.6976 34.5492H31.3279C31.8292 34.5492 32.2359 34.1426 32.2359 33.6407V27.6234C32.2359 27.1215 31.8292 26.7148 31.3279 26.7148Z" fill="#8CBCD6"></path><path d="M39.5657 26.7148H36.9354C36.434 26.7148 36.0273 27.1215 36.0273 27.6234V33.6407C36.0273 34.1426 36.434 34.5492 36.9354 34.5492H39.5657C40.0675 34.5492 40.4742 34.1426 40.4742 33.6407V27.6234C40.4742 27.1215 40.0675 26.7148 39.5657 26.7148Z" fill="#8CBCD6"></path><path d="M15.1016 33.5977H44.9201V35.5019H15.1016V33.5977Z" fill="#8CBCD6"></path><path d="M15.1016 17.3594H44.9201V19.2637H15.1016V17.3594Z" fill="#8CBCD6"></path></g><defs><clipPath id="clip0_59_28255"><rect width="65" height="65" fill="white" transform="translate(0.5)"></rect></clipPath></defs></svg>