<svg xmlns="http://www.w3.org/2000/svg" width="66" height="65" viewBox="0 0 66 65" fill="none"><g clip-path="url(#clip0_59_28704)"><path d="M41.9648 20.1719L46.4476 20.1719L46.4476 22.4133L41.9648 22.4133L41.9648 20.1719Z" fill="#C9DA53"></path><path d="M2.74219 12.3281L11.7077 12.3281L11.7077 42.5867L2.74219 42.5867L2.74219 12.3281Z" fill="#1F8B94"></path><path d="M2.74219 30.2578L11.7077 30.2578L11.7077 36.982L2.74219 36.982L2.74219 30.2578Z" fill="#F6F6E7"></path><path d="M11.707 12.3281L20.6725 12.3281L20.6725 42.5867L11.707 42.5867L11.707 12.3281Z" fill="#2276BB"></path><path d="M21.793 12.3078L30.4787 10.0859L37.7 38.3147L29.0143 40.5366L21.793 12.3078Z" fill="#D2859B"></path><path d="M42.5859 16.6864L43.5883 14.6816L48.0709 16.9229L47.0686 18.9277L42.5859 16.6864Z" fill="#C9DA53"></path><path d="M44.5352 12.001L46.1201 10.416L49.4824 13.7784L47.8975 15.3633L44.5352 12.001Z" fill="#C9DA53"></path><path d="M57.6562 20.1719L62.139 20.1719L62.139 22.4133L57.6563 22.4133L57.6562 20.1719Z" fill="#C9DA53"></path><path d="M56.0352 16.9326L60.5178 14.6914L61.5201 16.6962L57.0375 18.9374L56.0352 16.9326Z" fill="#C9DA53"></path><path d="M54.6211 13.7745L57.9834 10.4121L59.5684 11.997L56.206 15.3594L54.6211 13.7745Z" fill="#C9DA53"></path><path d="M50.9336 8.96484L53.175 8.96484L53.175 13.4476L50.9336 13.4476L50.9336 8.96484Z" fill="#C9DA53"></path><path d="M11.707 30.2578L20.6725 30.2578L20.6725 36.982L11.707 36.982L11.707 30.2578Z" fill="#88D0EF"></path><path d="M26.2383 29.6809L34.924 27.459L36.5905 33.9733L27.9047 36.1952L26.2383 29.6809Z" fill="#F6F6E7"></path><path d="M58.7764 28.0166L45.3281 28.0166L45.3281 19.0511C45.3278 17.2677 46.0363 15.5572 47.2972 14.296C49.923 11.6698 54.1803 11.6696 56.8065 14.2952C56.8068 14.2955 56.8071 14.2957 56.8073 14.296C58.0683 15.5572 58.7767 17.2677 58.7764 19.0511L58.7764 28.0166Z" fill="#5EA98A"></path><path d="M49.8121 26.8976C49.1932 26.8976 48.6914 26.3958 48.6914 25.7769L48.6914 20.1734C48.6914 19.5545 49.1932 19.0527 49.8121 19.0527C50.431 19.0527 50.9328 19.5545 50.9328 20.1734L50.9328 25.7769C50.9328 26.3958 50.431 26.8976 49.8121 26.8976Z" fill="#1F8B94"></path><path d="M54.2965 26.8968C53.6776 26.8968 53.1758 26.395 53.1758 25.7761L53.1758 17.9312C53.1758 17.3123 53.6776 16.8105 54.2965 16.8105C54.9154 16.8105 55.4172 17.3123 55.4172 17.9312L55.4172 25.7761C55.4172 26.395 54.9154 26.8968 54.2965 26.8968Z" fill="#1F8B94"></path><path d="M59.8955 41.465L44.2058 41.465L40.8438 25.7754L63.2575 25.7754L59.8955 41.465Z" fill="#EF937D"></path><path d="M53.1758 47.0684L61.0206 47.0684L61.0206 56.0339L53.1758 47.0684Z" fill="#FFCC00"></path><path d="M12.8292 47.0684L4.98438 47.0684L4.98438 56.0339L12.8292 47.0684Z" fill="#FFCC00"></path><path d="M0.5 41.4648L65.5 41.4648L65.5 48.189L0.5 48.189L0.5 41.4648Z" fill="#FFCC00"></path></g><defs><clipPath id="clip0_59_28704"><rect width="65" height="65" fill="white" transform="translate(0.5)"></rect></clipPath></defs></svg>