<svg xmlns="http://www.w3.org/2000/svg" width="66" height="65" viewBox="0 0 66 65" fill="none"><g clip-path="url(#clip0_59_28606)"><path d="M31.1016 45.1953H34.9102V56.1133H31.1016V45.1953Z" fill="#DDDDE1"></path><path d="M33 45.1953H34.9106V56.1133H33V45.1953Z" fill="#B8B8BD"></path><path d="M46.3359 5.07812V27.4219H19.6758V5.07812C19.6758 2.27754 21.9533 0 24.7539 0H41.2578C44.0584 0 46.3359 2.27754 46.3359 5.07812Z" fill="#73C5A2"></path><path d="M46.3364 5.07812V27.4219H33V0H41.2583C44.0589 0 46.3364 2.27754 46.3364 5.07812Z" fill="#45B686"></path><path d="M8.24219 37.5781V62.9688C8.24219 64.0199 7.38906 64.873 6.33789 64.873C5.28672 64.873 4.43359 64.0199 4.43359 62.9688V37.5781H8.24219Z" fill="#E0A46F"></path><path d="M61.5742 37.5781V62.9688C61.5742 64.0199 60.7211 64.873 59.6699 64.873C58.6188 64.873 57.7656 64.0199 57.7656 62.9688V37.5781H61.5742Z" fill="#D3965C"></path><path d="M39.3489 55.4785C39.9862 55.4785 40.5804 55.7972 40.9333 56.3266L44.7419 62.0395C45.3259 62.9142 45.0885 64.0974 44.2138 64.6801C43.3435 65.2614 42.158 65.0302 41.5731 64.152L38.3295 59.2871H34.9119V63.0957C34.9119 64.1469 34.0588 65 33.0076 65C31.9564 65 31.1033 64.1469 31.1033 63.0957V59.2871H27.6857L24.4421 64.152C23.8594 65.0267 22.6762 65.2641 21.8015 64.6801C20.9267 64.0974 20.6893 62.9142 21.2733 62.0395L25.0819 56.3266C25.4349 55.7972 26.029 55.4785 26.6663 55.4785H39.3489Z" fill="#73C5A2"></path><path d="M44.2125 64.6801C43.3429 65.2615 42.1571 65.0305 41.5719 64.152L38.3282 59.2871H34.9106V63.0957C34.9106 64.1469 34.0575 65 33.0063 65H33V55.4785H39.3477C39.985 55.4785 40.5791 55.7972 40.932 56.3266L44.7406 62.0395C45.3246 62.9142 45.0872 64.0974 44.2125 64.6801Z" fill="#73C5A2"></path><path d="M15.875 37.5781V41.3867C15.875 43.8368 17.8683 45.83 20.3183 45.83H45.7089C48.1589 45.83 50.1522 43.8368 50.1522 41.3867V37.5781H15.875Z" fill="#73C5A2"></path><path d="M50.1514 37.5781V41.3867C50.1514 43.8369 48.1582 45.8301 45.708 45.8301H33V37.5781H50.1514Z" fill="#45B686"></path><path d="M63.5955 26.7871H2.40429C1.35261 26.7871 0.5 27.6397 0.5 28.6914V36.3086C0.5 37.3602 1.35261 38.2128 2.40429 38.2128H63.5955C64.6471 38.2128 65.4997 37.3602 65.4997 36.3086V28.6914C65.4997 27.6397 64.6471 26.7871 63.5955 26.7871Z" fill="#ECB885"></path><path d="M65.4999 28.6914V36.3086C65.4999 37.3597 64.6467 38.2128 63.5956 38.2128H33V26.7871H63.5956C64.6467 26.7871 65.4999 27.6402 65.4999 28.6914Z" fill="#E0A46F"></path></g><defs><clipPath id="clip0_59_28606"><rect width="65" height="65" fill="white" transform="translate(0.5)"></rect></clipPath></defs></svg>