<svg xmlns="http://www.w3.org/2000/svg" width="66" height="65" viewBox="0 0 66 65" fill="none"><g clip-path="url(#clip0_59_28682)"><path d="M57.7229 18.5174L54.7662 25.5366C54.3574 26.5053 53.2364 26.9623 52.2715 26.5522L48.4388 24.9387L45.251 23.5955C44.2824 23.1867 43.8279 22.0708 44.2354 21.1009L47.1934 14.0816C47.6009 13.113 48.7181 12.6572 49.6868 13.066L53.117 14.5107L56.7073 16.0227C57.6759 16.4315 58.1317 17.5474 57.7229 18.5174Z" fill="#766D78"></path><path d="M53.9923 28.8696L52.4396 40.4755L40.8932 41.7641L33.2126 42.6223C33.1427 42.6299 33.0717 42.6337 33.0018 42.6337C32.4051 42.6337 31.8377 42.3531 31.4759 41.8682C31.0721 41.3273 30.9845 40.6113 31.2473 39.9892L35.5917 29.6895C35.5929 29.687 35.5942 29.6832 35.5955 29.6794L38.2463 23.3927C39.5196 20.3725 43.0286 18.5456 46.728 20.0843L49.9996 21.463L53.9923 28.8696Z" fill="#FFCC00"></path><path d="M57.7216 18.5184L54.7648 25.5376C54.3561 26.5063 53.2351 26.9633 52.2702 26.5532L48.4375 24.9396L53.1157 14.5117L56.706 16.0237C57.6746 16.4325 58.1304 17.5484 57.7216 18.5184Z" fill="#554E56"></path><path d="M57.3095 31.4262C57.3082 31.4287 53.9896 39.3011 53.9896 39.3036C53.6342 40.0641 53.1479 40.3332 52.437 40.4754L40.8906 41.764L49.997 21.4629L53.9236 23.1158C57.1508 24.4768 58.6679 28.2041 57.3095 31.4262Z" fill="#FFCC00"></path><path d="M40.4361 38.581C40.4361 39.0862 40.2368 39.5712 39.8788 39.9279C39.5221 40.2859 39.0371 40.4865 38.5318 40.4865H15.0684C14.5631 40.4865 14.0781 40.2859 13.7214 39.9279C13.3646 39.5712 13.1641 39.0862 13.1641 38.581C13.1691 32.1584 15.2677 25.8895 19.1042 20.7656L22.6843 18.9629H32.452C32.452 18.9629 34.5646 20.6996 34.6128 20.7656C36.6529 23.4951 38.1853 26.5521 39.1742 29.8758C39.178 29.8885 39.1806 29.9012 39.1844 29.9139C40.0121 32.7043 40.4336 35.6204 40.4361 38.581Z" fill="#FFCC00"></path><path d="M40.4368 38.581C40.4368 39.0862 40.2375 39.5712 39.8795 39.9279C39.5228 40.2859 39.0378 40.4865 38.5325 40.4865H26.8008V18.9629H32.4527C32.4527 18.9629 34.5652 20.6996 34.6135 20.7656C36.6536 23.4951 38.1859 26.5521 39.1749 29.8758C39.1787 29.8885 39.1812 29.9012 39.1851 29.9139C40.0128 32.7043 40.4343 35.6204 40.4368 38.581Z" fill="#FF8756"></path><path d="M12.36 22.868C11.9675 22.868 11.5716 22.7471 11.2315 22.4963C10.3849 21.8723 10.2046 20.6801 10.8286 19.8336L14.944 14.251C15.5683 13.4044 16.7606 13.2241 17.6069 13.8482C18.4535 14.4722 18.6338 15.6644 18.0097 16.5109L13.8943 22.0934C13.5209 22.6 12.9443 22.868 12.36 22.868Z" fill="#554E56"></path><path d="M62.2488 39.1543L57.2075 62.7028C57.0196 63.5813 56.2427 64.2085 55.3451 64.2085H10.6576C9.76006 64.2085 8.98311 63.5813 8.79521 62.7028L3.75391 39.1543H62.2488Z" fill="#E98E8E"></path><path d="M62.2456 39.1543L57.2043 62.7028C57.0164 63.5813 56.2395 64.2085 55.3419 64.2085H33.4336V39.1543H62.2456Z" fill="#FF9EAC"></path><path d="M11.7513 0.874211C11.6484 0.866593 11.5977 0.862785 11.5977 0.862785C11.5977 0.862785 11.8021 0.693937 11.7513 0.874211Z" fill="#FFCC00"></path><path d="M65.5 38.584C65.5 39.6352 64.6469 40.4883 63.5957 40.4883H2.4043C1.35313 40.4883 0.5 39.6352 0.5 38.584C0.5 37.5328 1.35313 36.6797 2.4043 36.6797H20.1054L33.4354 39.1553L46.7655 36.6797H63.5957C64.6469 36.6797 65.5 37.5328 65.5 38.584Z" fill="#FF9EAC"></path><path d="M65.4981 38.584C65.4981 39.6352 64.645 40.4883 63.5938 40.4883H33.4336V39.1553L46.7637 36.6797H63.5938C64.645 36.6797 65.4981 37.5328 65.4981 38.584Z" fill="#FF9DAC"></path><path d="M34.9973 37.9688L33.4355 36.6797H20.1055V54.1446C20.1055 55.1958 20.9573 56.0489 22.0098 56.0489C23.0609 56.0489 23.9141 55.1958 23.9141 54.1446V52.7837H27.7227V54.1446C27.7227 55.1958 28.5745 56.0489 29.627 56.0489C30.6781 56.0489 31.5312 55.1958 31.5312 54.1446V52.7837H33.4355L34.9973 51.3611V37.9688Z" fill="#F4F4F7"></path><path d="M46.7637 36.6797V54.1446C46.7637 55.1958 45.9105 56.0489 44.8594 56.0489C43.8069 56.0489 42.9551 55.1958 42.9551 54.1446V52.7837H39.1465V54.1446C39.1465 55.1958 38.2934 56.0489 37.2422 56.0489C36.1897 56.0489 35.3379 55.1958 35.3379 54.1446V52.7837H33.4336V36.6797H46.7637Z" fill="#E5EAEE"></path><path d="M36.3519 14.1755V15.8437C36.3519 17.1513 35.9799 18.4259 35.2766 19.5291C35.0366 19.9049 34.7637 20.2527 34.4653 20.5688L31.4134 20.6082L26.8012 20.6679L19.1053 20.7669L16.0368 15.0007H10.0332C8.98203 15.0007 8.12891 14.1476 8.12891 13.0964V7.46094C8.12891 6.40977 8.98203 5.55664 10.0332 5.55664H27.733C29.5637 5.55664 31.2839 6.27012 32.5788 7.56377L34.3447 9.32969C35.6384 10.6233 36.3519 12.3448 36.3519 14.1755Z" fill="#766D78"></path><path d="M36.3515 14.1755V15.8437C36.3515 17.1513 35.9795 18.4259 35.2762 19.5291C35.0362 19.9049 34.7633 20.2527 34.4649 20.5688L31.413 20.6082L26.8008 20.6679V5.55664H27.7326C29.5633 5.55664 31.2835 6.27012 32.5784 7.56377L34.3443 9.32969C35.638 10.6233 36.3515 12.3448 36.3515 14.1755Z" fill="#554E56"></path></g><defs><clipPath id="clip0_59_28682"><rect width="65" height="65" fill="white" transform="translate(0.5)"></rect></clipPath></defs></svg>