<svg xmlns="http://www.w3.org/2000/svg" width="66" height="65" viewBox="0 0 66 65" fill="none"><g clip-path="url(#clip0_59_28728)"><path d="M47.5676 44.9492L44.5003 53.9595C44.2219 54.7773 44.7989 55.6356 45.6614 55.6865L50.781 55.9883C52.5428 56.0921 54.1573 55.0068 54.726 53.336L57.5812 44.9492H47.5676Z" fill="#FC9744"></path><path d="M53.2859 44.9492L50.4551 53.2645C50.0172 54.5508 48.9598 55.4896 47.6914 55.8066L50.7793 55.9889C52.5413 56.0928 54.1559 55.0067 54.7245 53.3365L57.5798 44.9493L53.2859 44.9492Z" fill="#FB8627"></path><path d="M57.0234 46.5906L59.7065 38.7095C59.9849 37.8917 59.4079 37.0334 58.5453 36.9824L53.4258 36.6807C51.664 36.5768 50.0495 37.6622 49.4808 39.333L47.207 46.012L57.0234 46.5906Z" fill="#31A7FB"></path><path d="M57.022 46.5904L59.7052 38.7089C59.9833 37.8917 59.4064 37.0336 58.5441 36.9818L54.7831 36.7598C55.3982 37.0147 55.7493 37.716 55.52 38.3895L52.8125 46.3428L57.022 46.5904Z" fill="#1C96F9"></path><path d="M17.918 10.8086H24.0353V41.0014H17.918V10.8086Z" fill="#5169CD"></path><path d="M17.918 10.8086H24.0353V16.2508H17.918V10.8086Z" fill="#3351C5"></path><path d="M20.0195 10.8086H24.034V41.0008H20.0195V10.8086Z" fill="#3351C5"></path><path d="M24.0355 10.9389V6.72035C24.0355 6.00319 23.4541 5.42188 22.737 5.42188H19.2164C18.4994 5.42188 17.918 6.00319 17.918 6.72035V10.9389H24.0355Z" fill="#FFCC00"></path><path d="M24.0355 6.72035V10.9389H21.275V6.72035C21.275 6.00357 20.6933 5.42188 19.9766 5.42188H22.737C23.4538 5.422 24.0355 6.0037 24.0355 6.72035Z" fill="#FC9744"></path><path d="M23.8274 13.9095H18.1258C17.7673 13.9095 17.4766 13.6188 17.4766 13.2603V10.4617C17.4766 10.1032 17.7673 9.8125 18.1258 9.8125H23.8274C24.1859 9.8125 24.4766 10.1032 24.4766 10.4617V13.2603C24.4766 13.6188 24.1859 13.9095 23.8274 13.9095Z" fill="#DEECF0"></path><path d="M24.4761 10.4617V13.2599C24.4761 13.6183 24.1853 13.9092 23.8269 13.9092H21.0664C21.4248 13.9092 21.7156 13.6183 21.7156 13.2599V10.4617C21.7156 10.1033 21.4248 9.8125 21.0664 9.8125H23.8269C24.1853 9.8125 24.4761 10.1033 24.4761 10.4617Z" fill="#A9D3D8"></path><path d="M34.2553 0H25.957V51.8101H34.2552C34.7642 51.8101 35.1767 51.3975 35.1767 50.8885L35.1769 0.92168C35.1769 0.412598 34.7644 0.000126953 34.2553 0Z" fill="#FC9744"></path><path d="M35.177 0.921553L35.1768 50.889C35.1768 51.3977 34.764 51.8106 34.2553 51.8106H30.9727C31.4814 51.8106 31.8942 51.3977 31.8942 50.889L31.8943 0.921553C31.8943 0.412852 31.4815 0 30.9728 0H34.2554C34.7641 0 35.177 0.412852 35.177 0.921553Z" fill="#FB7722"></path><path d="M23.2692 51.8101H26.962L26.9621 0H23.2693C22.7604 0 22.3478 0.412598 22.3478 0.921553L22.3477 50.8885C22.3477 51.3975 22.7603 51.8101 23.2692 51.8101Z" fill="#FFCC00"></path><path d="M36.3643 38.0168L30.9297 36.1667L41.0539 6.4272C41.285 5.74838 42.0227 5.38543 42.7015 5.61648L45.6778 6.62969C46.3567 6.86075 46.7196 7.59847 46.4886 8.27729L36.3643 38.0168Z" fill="#557983"></path><path d="M38.2539 14.6211L39.4229 11.1831L44.8596 13.0317L43.6906 16.4697L38.2539 14.6211Z" fill="#47666B"></path><path d="M46.4903 8.27778L36.3661 38.0171L33.6484 37.092L43.7726 7.35268C44.0035 6.67424 43.6416 5.93651 42.9618 5.70508L45.6795 6.63019C46.3581 6.86111 46.7213 7.59922 46.4903 8.27778Z" fill="#47666B"></path><path d="M30.9336 36.1504L35.0953 23.9109L40.5313 25.7593L36.3697 37.9988L30.9336 36.1504Z" fill="#47666B"></path><path d="M33.6484 37.0723L37.8101 24.8328L40.5288 25.7572L36.3671 37.9967L33.6484 37.0723Z" fill="#3F5959"></path><path d="M40.5291 26.7634C40.4243 26.7634 40.3176 26.7465 40.2129 26.7109L34.7783 24.8608C34.2655 24.6862 33.9913 24.1289 34.1659 23.6161C34.3403 23.1034 34.898 22.8293 35.4105 23.0037L40.8451 24.8538C41.3579 25.0284 41.6321 25.5857 41.4575 26.0984C41.3187 26.5065 40.9374 26.7634 40.5291 26.7634Z" fill="#88D0EF"></path><path d="M41.4588 26.0975C41.3189 26.5055 40.9383 26.7632 40.5303 26.7632C40.4257 26.7632 40.3184 26.7462 40.2138 26.7109L37.4961 25.7849L38.1278 23.9277L40.8455 24.8537C41.3581 25.0277 41.6327 25.5849 41.4588 26.0975Z" fill="#88D0EF"></path><path d="M47.1332 15.1723L38.9402 12.3832C38.6007 12.2676 38.4193 11.8988 38.5348 11.5594L39.2117 9.57103C39.3273 9.23156 39.696 9.05014 40.0355 9.16567L48.2286 11.9548C48.568 12.0704 48.7495 12.4392 48.6339 12.7786L47.957 14.767C47.8414 15.1064 47.4726 15.288 47.1332 15.1723Z" fill="#7DA2B0"></path><path d="M48.2277 11.9551L45.8922 11.1602L44.7969 14.3775L47.1323 15.1725C47.4718 15.288 47.8406 15.1066 47.9561 14.7671L48.633 12.7788C48.7485 12.4395 48.5671 12.0707 48.2277 11.9551Z" fill="#688D97"></path><path d="M45.3786 21.4509L49.0046 10.7995C49.1201 10.4601 49.4889 10.2787 49.8284 10.3942L51.8167 11.0711C52.1562 11.1866 52.3376 11.5554 52.2221 11.8949L48.5961 22.5463C48.4805 22.8857 48.1117 23.0672 47.7723 22.9516L45.7839 22.2747C45.4444 22.1592 45.263 21.7903 45.3786 21.4509Z" fill="#557983"></path><path d="M7.70703 14.5352L13.4574 12.443L23.7833 40.8242L18.033 42.9163L7.70703 14.5352Z" fill="#27D1B3"></path><path d="M7.70703 14.5352L13.4574 12.443L15.3186 17.5587L9.56827 19.6508L7.70703 14.5352Z" fill="#20B69F"></path><path d="M10.668 13.459L13.458 12.4439L23.7838 40.8246L20.9937 41.8397L10.668 13.459Z" fill="#20B69F"></path><path d="M13.4966 12.561L12.0538 8.59691C11.8085 7.92304 11.0634 7.57557 10.3896 7.82085L7.08129 9.025C6.40742 9.27027 6.05995 10.0154 6.30522 10.6892L7.74804 14.6533L13.4966 12.561Z" fill="#FFCC00"></path><path d="M12.055 8.59682L13.4978 12.5609L10.9038 13.5051L9.4611 9.54097C9.21596 8.86748 8.47036 8.51976 7.79688 8.7649L10.3909 7.82075C11.0644 7.57561 11.8099 7.92333 12.055 8.59682Z" fill="#FC9744"></path><path d="M14.3153 15.4225L8.95752 17.3726C8.62059 17.4953 8.24811 17.3216 8.12547 16.9847L7.16824 14.3548C7.04561 14.0179 7.21928 13.6454 7.55621 13.5228L12.914 11.5725C13.2509 11.4499 13.6234 11.6236 13.7461 11.9605L14.7033 14.5903C14.8259 14.9273 14.6523 15.2999 14.3153 15.4225Z" fill="#DEECF0"></path><path d="M13.7464 11.9605L14.7034 14.5898C14.8259 14.9266 14.6521 15.2993 14.3154 15.4219L11.7214 16.366C12.0582 16.2435 12.232 15.8706 12.1093 15.534L11.1524 12.9046C11.0299 12.5678 10.657 12.394 10.3203 12.5167L12.9143 11.5725C13.251 11.4499 13.6238 11.6238 13.7464 11.9605Z" fill="#A9D3D8"></path><path d="M56.917 65.001H26.6445V51.6133H56.917C57.6459 51.6133 58.2368 52.2041 58.2368 52.9331V63.6813C58.2367 64.41 57.6459 65.001 56.917 65.001Z" fill="#FCCA9F"></path><path d="M58.2359 52.9331V63.6811C58.2359 64.4095 57.6447 65.0009 56.9161 65.0009H52.5742C53.3027 65.0009 53.894 64.4096 53.894 63.6811V52.9331C53.894 52.2046 53.3028 51.6133 52.5742 51.6133H56.9161C57.6447 51.6134 58.2359 52.2046 58.2359 52.9331Z" fill="#FFCC00"></path><path d="M40.7422 35.5859V63.6798C40.7422 64.4082 40.1511 64.9995 39.4226 64.9995H12.528C11.7983 64.9995 11.207 64.4084 11.207 63.6798V35.5859H40.7422Z" fill="#F2EFF2"></path><path d="M11.207 35.5859H40.7413V39.4688H11.207V35.5859Z" fill="#E1DDE1"></path><path d="M40.7415 35.5859V63.6793C40.7415 64.4077 40.1503 64.9991 39.4217 64.9991H34.5664C35.2949 64.9991 35.8862 64.4079 35.8862 63.6793V35.5859H40.7415Z" fill="#E1DDE1"></path><path d="M41.3446 36.3828H10.605C9.87612 36.3828 9.28516 35.7919 9.28516 35.063V30.8862C9.28516 30.1574 9.876 29.5664 10.605 29.5664H41.3448C42.0736 29.5664 42.6646 30.1572 42.6646 30.8862V35.063C42.6644 35.7919 42.0735 36.3828 41.3446 36.3828Z" fill="#FCCA9F"></path><path d="M42.6634 30.8862V35.0632C42.6634 35.7917 42.0722 36.383 41.3436 36.383H36.4883C37.2167 36.383 37.8081 35.7918 37.8081 35.0632V30.8862C37.8081 30.1578 37.2169 29.5664 36.4883 29.5664H41.3436C42.0722 29.5665 42.6634 30.1578 42.6634 30.8862Z" fill="#FFCC00"></path><path d="M11.207 59.4258H40.7422V61.3876H11.207V59.4258Z" fill="#47666B"></path><path d="M35.8867 59.4258H40.7428V61.3876H35.8867V59.4258Z" fill="#3F5959"></path></g><defs><clipPath id="clip0_59_28728"><rect width="65" height="65" fill="white" transform="translate(0.5)"></rect></clipPath></defs></svg>