<?xml version="1.0" encoding="UTF-8"?>
<svg id="uuid-d003b4be-1245-4d05-b865-02cd68814642" data-name="Calque 2" xmlns="http://www.w3.org/2000/svg" xmlns:xlink="http://www.w3.org/1999/xlink" viewBox="0 0 954.85 254.62">
  <defs>
    <linearGradient id="uuid-a5f21b99-96db-4641-b544-6f64c5c77953" data-name="Dégradé sans nom 29" x1="458.91" y1=".42" x2="513.61" y2="310.63" gradientUnits="userSpaceOnUse">
      <stop offset="0" stop-color="#f94343"/>
      <stop offset=".12" stop-color="#cf3d3d"/>
      <stop offset=".28" stop-color="#9c3636"/>
      <stop offset=".44" stop-color="#713030"/>
      <stop offset=".6" stop-color="#502b2b"/>
      <stop offset=".75" stop-color="#392828"/>
      <stop offset=".88" stop-color="#2a2626"/>
      <stop offset="1" stop-color="#262626"/>
    </linearGradient>
  </defs>
  <g id="uuid-f90a595f-8cf3-462c-8480-6ff442e48cd8" data-name="Logo">
    <g>
      <g>
        <g>
          <path d="m138.18,81.34l-47.96,111.23-47.94-111.23H0l76.13,173.03,13.84-32.63,14.34,32.87,76.13-173.27h-42.27Zm-62.29,144.1L17.8,92.96h16.81l49.19,114.2-7.9,18.29Zm20.51-18.29l49.43-114.2h17.07l-58.58,132.74-7.92-18.54Z" style="fill: #f94343; stroke-width: 0px;"/>
          <path d="m295.38,205.67l-6.67-15.57h29.66l-48.44-108.26-13.85,32.38-14.09-32.87-47.96,108.76h29.17l-6.67,15.33h-29.17l-21.75,49.19h42.27l16.07-37.57h63.77l16.07,37.57h42.26l-21.5-48.94h-29.17Zm-95.16,37.33h-17.05l11.62-25.95h16.81l-11.37,25.95Zm70.94-64.51h-30.41l15.32-35.35,15.08,35.35Zm-59.33,0l29.91-68.22,7.9,18.29-21.5,49.93h-16.31Zm17.31,26.94l6.67-15.33h40.29l6.67,15.57-53.64-.25Zm54.62-26.94l-21.5-49.93,7.91-18.04,30.41,67.97h-16.81Zm27.68,64.26l-11.12-25.71h16.57l11.62,25.71h-17.06Z" style="fill: #f94343; stroke-width: 0px;"/>
          <path d="m493.87,187.13c8.56-.33,16.11-2.1,22.62-5.31,6.5-3.21,11.99-7.29,16.44-12.24,4.45-4.94,7.78-10.51,10.01-16.68,2.22-6.18,3.34-12.4,3.34-18.66,0-7.25-1.41-14.09-4.2-20.52-2.81-6.43-6.59-12.03-11.37-16.81-4.78-4.78-10.38-8.57-16.81-11.37-6.43-2.8-13.27-4.2-20.52-4.2h-83.55v26.45h-26.69v52.9h26.69v14.83h-26.69v79.1h38.31v-67.48h22.66c9.2,10.22,18.8,20.93,28.82,32.14,10.02,11.21,19.96,22.33,29.84,33.37l1.73,1.98h48.7l-59.57-67.48h.25Zm-84.05,55.86h-15.08v-55.86h15.08v55.86Zm0-93.93h-15.08v-29.66h15.08v29.66Zm11.62-29.66h71.97c4.11,0,7.55,1.44,10.35,4.32,2.79,2.89,4.19,6.39,4.19,10.51s-1.39,7.62-4.19,10.51c-2.8,2.88-6.24,4.32-10.35,4.32h-71.97v-29.66Zm106.29,123.59h-18c-2.47-2.81-5.27-5.92-8.38-9.3-3.12-3.39-6.33-6.95-9.62-10.67-3.28-3.72-6.61-7.48-9.98-11.29s-6.62-7.44-9.74-10.92c-7.41-8.27-15.05-16.71-22.94-25.31h-27.62v-14.83h72c3.62,0,6.99-.7,10.11-2.11,3.12-1.41,5.87-3.31,8.26-5.71,2.38-2.4,4.27-5.22,5.67-8.45,1.4-3.23,2.09-6.66,2.09-10.3s-.69-7.04-2.09-10.18c-1.4-3.15-3.29-5.92-5.67-8.32-2.39-2.4-5.14-4.31-8.26-5.71-3.12-1.41-6.49-2.12-10.11-2.12h-72v-14.83h72.02c5.59,0,10.9,1.07,15.91,3.21,5.01,2.13,9.41,5.09,13.19,8.87,3.78,3.78,6.74,8.17,8.88,13.19,2.14,5.01,3.21,10.31,3.21,15.89,0,4.93-.87,9.82-2.6,14.66-1.73,4.85-4.33,9.2-7.79,13.06-3.46,3.86-7.78,7.02-12.98,9.49-5.19,2.46-11.16,3.86-17.92,4.19h-24.96l59.32,67.48Z" style="fill: #f94343; stroke-width: 0px;"/>
          <path d="m705.2,205.67l-6.67-15.57h29.66l-48.44-108.26-13.84,32.38-14.09-32.87-47.96,108.76h29.17l-6.67,15.33h-29.17l-21.75,49.19h42.27l16.07-37.57h63.77l16.07,37.57h42.26l-21.5-48.94h-29.17Zm-95.16,37.33h-17.05l11.62-25.95h16.81l-11.37,25.95Zm70.94-64.51h-30.41l15.32-35.35,15.08,35.35Zm-59.33,0l29.91-68.22,7.91,18.29-21.5,49.93h-16.31Zm17.31,26.94l6.67-15.33h40.29l6.67,15.57-53.64-.25Zm54.62-26.94l-21.5-49.93,7.91-18.04,30.41,67.97h-16.81Zm27.68,64.26l-11.12-25.71h16.57l11.62,25.71h-17.06Z" style="fill: #f94343; stroke-width: 0px;"/>
          <path d="m950.65,113.72c-2.8-6.43-6.59-12.03-11.37-16.81-4.77-4.78-10.38-8.57-16.81-11.37-6.43-2.8-13.26-4.2-20.51-4.2h-82.32v26.45h-26.69v52.9h26.69v14.83h-26.69v79.1h38.31v-67.48h70.8c7.24,0,14.06-1.4,20.47-4.2,6.41-2.8,12-6.59,16.77-11.37,4.77-4.78,8.55-10.38,11.35-16.81,2.79-6.43,4.19-13.26,4.19-20.52s-1.4-14.09-4.2-20.52Zm-131,129.27h-15.08v-55.86h15.08v55.86Zm0-93.93h-15.08v-29.66h15.08v29.66Zm11.62-29.66h70.74c4.11,0,7.55,1.44,10.35,4.32,2.79,2.89,4.19,6.39,4.19,10.51s-1.4,7.62-4.19,10.51c-2.8,2.88-6.24,4.32-10.35,4.32h-70.74v-29.66Zm108.77,30.85c-2.14,5.01-5.1,9.41-8.88,13.18-3.79,3.78-8.18,6.74-13.2,8.87s-10.31,3.2-15.91,3.2h-70.79v-14.83h70.76c3.62,0,6.99-.7,10.11-2.11,3.12-1.41,5.88-3.31,8.26-5.71,2.38-2.4,4.27-5.22,5.67-8.45,1.4-3.23,2.1-6.66,2.1-10.3s-.7-7.04-2.1-10.18c-1.4-3.15-3.28-5.92-5.67-8.32-2.38-2.4-5.14-4.31-8.26-5.71-3.12-1.41-6.49-2.12-10.11-2.12h-70.76v-14.83h70.79c5.59,0,10.89,1.07,15.91,3.21s9.41,5.09,13.2,8.87c3.78,3.78,6.74,8.17,8.88,13.19,2.14,5.01,3.21,10.31,3.21,15.89s-1.07,11.13-3.21,16.14Z" style="fill: #f94343; stroke-width: 0px;"/>
        </g>
        <g>
          <path d="m138.18,81.34l-47.96,111.23-47.94-111.23H0l76.13,173.03,13.84-32.63,14.34,32.87,76.13-173.27h-42.27Zm-62.29,144.1L17.8,92.96h16.81l49.19,114.2-7.9,18.29Zm20.51-18.29l49.43-114.2h17.07l-58.58,132.74-7.92-18.54Z" style="fill: url(#uuid-a5f21b99-96db-4641-b544-6f64c5c77953); stroke-width: 0px;"/>
          <path d="m295.38,205.67l-6.67-15.57h29.66l-48.44-108.26-13.85,32.38-14.09-32.87-47.96,108.76h29.17l-6.67,15.33h-29.17l-21.75,49.19h42.27l16.07-37.57h63.77l16.07,37.57h42.26l-21.5-48.94h-29.17Zm-95.16,37.33h-17.05l11.62-25.95h16.81l-11.37,25.95Zm70.94-64.51h-30.41l15.32-35.35,15.08,35.35Zm-59.33,0l29.91-68.22,7.9,18.29-21.5,49.93h-16.31Zm17.31,26.94l6.67-15.33h40.29l6.67,15.57-53.64-.25Zm54.62-26.94l-21.5-49.93,7.91-18.04,30.41,67.97h-16.81Zm27.68,64.26l-11.12-25.71h16.57l11.62,25.71h-17.06Z" style="fill: url(#uuid-a5f21b99-96db-4641-b544-6f64c5c77953); stroke-width: 0px;"/>
          <path d="m493.87,187.13c8.56-.33,16.11-2.1,22.62-5.31,6.5-3.21,11.99-7.29,16.44-12.24,4.45-4.94,7.78-10.51,10.01-16.68,2.22-6.18,3.34-12.4,3.34-18.66,0-7.25-1.41-14.09-4.2-20.52-2.81-6.43-6.59-12.03-11.37-16.81-4.78-4.78-10.38-8.57-16.81-11.37-6.43-2.8-13.27-4.2-20.52-4.2h-83.55v26.45h-26.69v52.9h26.69v14.83h-26.69v79.1h38.31v-67.48h22.66c9.2,10.22,18.8,20.93,28.82,32.14,10.02,11.21,19.96,22.33,29.84,33.37l1.73,1.98h48.7l-59.57-67.48h.25Zm-84.05,55.86h-15.08v-55.86h15.08v55.86Zm0-93.93h-15.08v-29.66h15.08v29.66Zm11.62-29.66h71.97c4.11,0,7.55,1.44,10.35,4.32,2.79,2.89,4.19,6.39,4.19,10.51s-1.39,7.62-4.19,10.51c-2.8,2.88-6.24,4.32-10.35,4.32h-71.97v-29.66Zm106.29,123.59h-18c-2.47-2.81-5.27-5.92-8.38-9.3-3.12-3.39-6.33-6.95-9.62-10.67-3.28-3.72-6.61-7.48-9.98-11.29s-6.62-7.44-9.74-10.92c-7.41-8.27-15.05-16.71-22.94-25.31h-27.62v-14.83h72c3.62,0,6.99-.7,10.11-2.11,3.12-1.41,5.87-3.31,8.26-5.71,2.38-2.4,4.27-5.22,5.67-8.45,1.4-3.23,2.09-6.66,2.09-10.3s-.69-7.04-2.09-10.18c-1.4-3.15-3.29-5.92-5.67-8.32-2.39-2.4-5.14-4.31-8.26-5.71-3.12-1.41-6.49-2.12-10.11-2.12h-72v-14.83h72.02c5.59,0,10.9,1.07,15.91,3.21,5.01,2.13,9.41,5.09,13.19,8.87,3.78,3.78,6.74,8.17,8.88,13.19,2.14,5.01,3.21,10.31,3.21,15.89,0,4.93-.87,9.82-2.6,14.66-1.73,4.85-4.33,9.2-7.79,13.06-3.46,3.86-7.78,7.02-12.98,9.49-5.19,2.46-11.16,3.86-17.92,4.19h-24.96l59.32,67.48Z" style="fill: url(#uuid-a5f21b99-96db-4641-b544-6f64c5c77953); stroke-width: 0px;"/>
          <path d="m705.2,205.67l-6.67-15.57h29.66l-48.44-108.26-13.84,32.38-14.09-32.87-47.96,108.76h29.17l-6.67,15.33h-29.17l-21.75,49.19h42.27l16.07-37.57h63.77l16.07,37.57h42.26l-21.5-48.94h-29.17Zm-95.16,37.33h-17.05l11.62-25.95h16.81l-11.37,25.95Zm70.94-64.51h-30.41l15.32-35.35,15.08,35.35Zm-59.33,0l29.91-68.22,7.91,18.29-21.5,49.93h-16.31Zm17.31,26.94l6.67-15.33h40.29l6.67,15.57-53.64-.25Zm54.62-26.94l-21.5-49.93,7.91-18.04,30.41,67.97h-16.81Zm27.68,64.26l-11.12-25.71h16.57l11.62,25.71h-17.06Z" style="fill: url(#uuid-a5f21b99-96db-4641-b544-6f64c5c77953); stroke-width: 0px;"/>
          <path d="m950.65,113.72c-2.8-6.43-6.59-12.03-11.37-16.81-4.77-4.78-10.38-8.57-16.81-11.37-6.43-2.8-13.26-4.2-20.51-4.2h-82.32v26.45h-26.69v52.9h26.69v14.83h-26.69v79.1h38.31v-67.48h70.8c7.24,0,14.06-1.4,20.47-4.2,6.41-2.8,12-6.59,16.77-11.37,4.77-4.78,8.55-10.38,11.35-16.81,2.79-6.43,4.19-13.26,4.19-20.52s-1.4-14.09-4.2-20.52Zm-131,129.27h-15.08v-55.86h15.08v55.86Zm0-93.93h-15.08v-29.66h15.08v29.66Zm11.62-29.66h70.74c4.11,0,7.55,1.44,10.35,4.32,2.79,2.89,4.19,6.39,4.19,10.51s-1.4,7.62-4.19,10.51c-2.8,2.88-6.24,4.32-10.35,4.32h-70.74v-29.66Zm108.77,30.85c-2.14,5.01-5.1,9.41-8.88,13.18-3.79,3.78-8.18,6.74-13.2,8.87s-10.31,3.2-15.91,3.2h-70.79v-14.83h70.76c3.62,0,6.99-.7,10.11-2.11,3.12-1.41,5.88-3.31,8.26-5.71,2.38-2.4,4.27-5.22,5.67-8.45,1.4-3.23,2.1-6.66,2.1-10.3s-.7-7.04-2.1-10.18c-1.4-3.15-3.28-5.92-5.67-8.32-2.38-2.4-5.14-4.31-8.26-5.71-3.12-1.41-6.49-2.12-10.11-2.12h-70.76v-14.83h70.79c5.59,0,10.89,1.07,15.91,3.21s9.41,5.09,13.2,8.87c3.78,3.78,6.74,8.17,8.88,13.19,2.14,5.01,3.21,10.31,3.21,15.89s-1.07,11.13-3.21,16.14Z" style="fill: url(#uuid-a5f21b99-96db-4641-b544-6f64c5c77953); stroke-width: 0px;"/>
        </g>
      </g>
      <g>
        <path d="m626.04,53.92h-25.26l-3.82,8.39h-12.42l28.87-61.25,28.88,61.25h-12.42l-3.82-8.39Zm-4.89-10.93l-7.75-17.2-7.75,17.2h15.5Z" style="fill: #912929; stroke-width: 0px;"/>
        <path d="m681.77,63.05c-.14,0-.25.04-.32.11h-.43c-.42,0-.86.02-1.32.05s-.91.05-1.33.05h-.85c-4.6,0-8.9-.83-12.9-2.49s-7.5-3.93-10.51-6.79c-3.01-2.87-5.38-6.21-7.11-10.03-1.73-3.82-2.6-7.93-2.6-12.31s.87-8.4,2.6-12.26c1.74-3.86,4.11-7.2,7.11-10.03,3.01-2.83,6.53-5.08,10.56-6.74,4.04-1.67,8.35-2.5,12.95-2.5h1.59c.35.07.88.11,1.59.11.28,0,.54.02.8.06.25.04.47.05.69.05.99.14,1.94.29,2.86.42.92.14,1.84.36,2.76.64v.1c2.55.78,4.98,1.81,7.28,3.08,2.3,1.27,4.37,2.76,6.21,4.46l-7.85,7.11c-1.98-1.84-4.26-3.29-6.85-4.35s-5.36-1.63-8.33-1.7h-.63c-3.12,0-6.02.57-8.71,1.7-2.69,1.13-5.03,2.67-7,4.62-1.98,1.95-3.56,4.23-4.72,6.85-1.17,2.62-1.76,5.41-1.76,8.39s.58,5.77,1.76,8.38c1.17,2.62,2.74,4.9,4.72,6.85,1.98,1.95,4.31,3.49,7,4.62,2.69,1.13,5.59,1.7,8.71,1.7h.63c.42,0,.9-.02,1.43-.05s1.08-.09,1.65-.16c.56-.07,1.17-.14,1.81-.21,3.39-.42,6.4-1.45,9.02-3.08v-11.68h-14.75v-8.81h24.84v26.75c-5.73,4.11-12.6,6.48-20.6,7.11Z" style="fill: #912929; stroke-width: 0px;"/>
        <path d="m726.24,12.42v14.86h27.81v8.81h-27.81v16.88h29.19v9.34h-40.34V3.08h40.34v9.34h-29.19Z" style="fill: #912929; stroke-width: 0px;"/>
        <path d="m822.31,2.01v61.36l-42.88-39.06v37.05h-11.14V0l42.88,39.06V2.01h11.14Z" style="fill: #912929; stroke-width: 0px;"/>
        <path d="m894.39,47.87c-2.83,4.39-6.63,7.89-11.42,10.51-4.77,2.62-10.07,3.93-15.87,3.93-4.39,0-8.53-.8-12.42-2.39-3.89-1.59-7.29-3.78-10.19-6.58s-5.2-6.05-6.9-9.77-2.55-7.7-2.55-11.94.85-8.23,2.55-11.94,4-6.95,6.9-9.71,6.3-4.94,10.19-6.53c3.89-1.59,8.03-2.39,12.42-2.39,5.8,0,11.09,1.31,15.87,3.93,4.78,2.62,8.58,6.09,11.42,10.4l-8.92,5.41c-1.91-2.9-4.48-5.23-7.69-7-3.23-1.77-6.74-2.66-10.57-2.66-2.97,0-5.75.55-8.33,1.65-2.59,1.1-4.83,2.57-6.74,4.41s-3.43,4-4.57,6.48c-1.13,2.48-1.7,5.13-1.7,7.96s.56,5.48,1.7,7.96c1.13,2.48,2.66,4.66,4.57,6.53,1.91,1.88,4.15,3.35,6.74,4.41,2.59,1.06,5.36,1.59,8.33,1.59,3.82,0,7.34-.86,10.57-2.6,3.21-1.73,5.78-4.09,7.69-7.06l8.92,5.41Z" style="fill: #912929; stroke-width: 0px;"/>
        <path d="m918.27,12.42v14.86h27.81v8.81h-27.81v16.88h29.19v9.34h-40.34V3.08h40.34v9.34h-29.19Z" style="fill: #912929; stroke-width: 0px;"/>
      </g>
    </g>
  </g>
</svg>