<svg xmlns="http://www.w3.org/2000/svg" width="66" height="65" viewBox="0 0 66 65" fill="none"><g clip-path="url(#clip0_59_28354)"><path d="M58.7759 33.7438V52.5041C58.779 53.3982 58.2505 54.2086 57.431 54.5662L33.8966 64.8093C33.6135 64.9323 33.3086 64.9971 33 64.9998V31.9395L58.7759 33.7438Z" fill="#A56A43"></path><path d="M32.9985 31.9395V64.9998C32.6899 64.9971 32.385 64.9323 32.102 64.8093L8.5675 54.5662C7.74807 54.2086 7.21956 53.3982 7.22267 52.5041V33.7438L32.9985 31.9395Z" fill="#CF9867"></path><path d="M19.5519 49.2262V52.3843C19.552 52.7624 19.3615 53.1151 19.0452 53.3223C18.7289 53.5295 18.3295 53.5632 17.9829 53.4119L12.3794 50.9711C11.9709 50.7927 11.7068 50.3892 11.707 49.9434V46.7842C11.7072 46.4062 11.8979 46.0539 12.2141 45.847C12.5304 45.64 12.9296 45.6065 13.276 45.7576L18.8794 48.1985C19.288 48.3768 19.5521 48.7804 19.5519 49.2262Z" fill="white"></path><path d="M58.7747 33.7441L63.0445 31.8837C63.6508 31.6174 64.1083 31.0965 64.2943 30.4609C64.4802 29.8253 64.3755 29.14 64.0083 28.5889L58.7747 20.7329L64.0083 12.8768C64.3755 12.3257 64.4802 11.6404 64.2943 11.0048C64.1083 10.3692 63.6508 9.84837 63.0445 9.58201L41.4376 0.190629C40.4444 -0.242006 39.2839 0.0976482 38.6807 0.997526L32.9988 9.52598L27.317 0.997526C26.7137 0.0976482 25.5533 -0.242006 24.5601 0.190629L2.95316 9.58201C2.34685 9.84837 1.88936 10.3692 1.70344 11.0048C1.51752 11.6404 1.62218 12.3257 1.98936 12.8768L7.22298 20.7329L1.98936 28.5889C1.62218 29.14 1.51752 29.8253 1.70344 30.4609C1.88936 31.0965 2.34685 31.6174 2.95316 31.8837L7.22298 33.7441L32.9888 31.2225L58.7747 33.7441Z" fill="#ECB885"></path><path d="M32.9988 31.9393L27.317 40.4678C26.7137 41.3676 25.5533 41.7073 24.5601 41.2747L7.22298 33.7436L2.95316 31.8833C2.34685 31.6169 1.88936 31.0961 1.70344 30.4605C1.51752 29.8249 1.62218 29.1396 1.98936 28.5885L7.22298 20.7324L32.9988 31.9393Z" fill="#ECB885"></path><path d="M63.0457 31.8833L58.7759 33.7436L41.4388 41.2747C40.4456 41.7073 39.2851 41.3676 38.6819 40.4678L33 31.9393L58.7759 20.7324L64.0095 28.5885C64.3767 29.1396 64.4813 29.8249 64.2954 30.4605C64.1095 31.0961 63.652 31.6169 63.0457 31.8833Z" fill="#ECB885"></path><path d="M32.9985 9.52539V31.9392L7.22266 20.7323L32.9985 9.52539Z" fill="#E0A46F"></path><path d="M58.7759 20.7323L33 31.9392V9.52539L58.7759 20.7323Z" fill="#CF9867"></path></g><defs><clipPath id="clip0_59_28354"><rect width="65" height="65" fill="white" transform="translate(0.5)"></rect></clipPath></defs></svg>