<svg xmlns="http://www.w3.org/2000/svg" width="66" height="65" viewBox="0 0 66 65" fill="none"><g clip-path="url(#clip0_59_28393)"><path d="M11.3333 48.7141C11.1309 48.7141 10.9227 48.6704 10.7282 48.5713C10.0597 48.238 9.7899 47.4248 10.1252 46.7543C10.6608 45.6752 11.8311 42.5252 12.4341 38.316C12.8764 35.2295 12.9677 32.0288 12.7019 28.8034C12.3726 24.7687 11.482 20.6804 10.0577 16.6497C9.80971 15.9436 10.1786 15.1699 10.8849 14.922C11.5891 14.672 12.3626 15.0409 12.6126 15.7472C14.1242 20.0278 15.0644 24.3761 15.4096 28.6706C15.6853 32.1163 15.5802 35.535 15.0961 38.8319C14.267 44.4892 12.6166 47.8296 12.5452 47.9685C12.3092 48.4403 11.8311 48.7141 11.3333 48.7141Z" fill="#434A54"></path><path d="M49.2495 2.76172H14.0409C13.5906 2.76172 13.1701 2.98592 12.9181 3.36082L4.79311 15.4431C4.48563 15.9013 4.48563 16.4984 4.79311 16.9547L12.9181 29.039C13.17 29.412 13.5906 29.6361 14.0409 29.6361H49.2495C49.9974 29.6361 50.6022 29.031 50.6022 28.2833V4.11658C50.6022 3.36882 49.9974 2.76172 49.2495 2.76172Z" fill="#CF5CA1"></path><path d="M53.3399 58.2481C53.074 58.2481 52.8102 58.1687 52.5821 58.018L49.2377 55.7567L45.927 57.9228C45.4767 58.2164 44.8955 58.2164 44.4452 57.9228L41.1324 55.7567L37.8119 57.9665C37.3161 58.2998 36.6614 58.2641 36.2012 57.8872L33.4389 55.6139L18.1907 55.4591C17.8317 55.4552 17.4885 55.3083 17.2385 55.0505C16.9886 54.7926 16.8498 54.4474 16.8556 54.0864L17.0421 40.542C17.052 39.8001 17.6551 39.2051 18.3969 39.2051L56.0195 39.2209C56.3806 39.2209 56.7237 39.3638 56.9776 39.6177L65.1027 47.7587C65.5153 48.1713 65.6164 48.8021 65.3566 49.3218L62.647 54.7369C62.518 54.9947 62.3117 55.2051 62.0538 55.336L53.9565 58.1012C53.7623 58.2006 53.552 58.2481 53.3399 58.2481Z" fill="#F6BB42"></path><path d="M26.0745 36.9552C23.2994 34.1036 19.5801 32.5029 15.6008 32.4493C15.5314 32.4473 15.4619 32.4473 15.3925 32.4473C11.457 32.4473 7.74557 33.9707 4.94076 36.7329C2.13187 39.5019 0.556869 43.1954 0.501389 47.139C0.447814 51.1183 1.9455 54.8791 4.72061 57.7316C7.4937 60.5803 11.2131 62.1829 15.1921 62.2386C15.2616 62.2386 15.331 62.2386 15.4005 62.2386C19.3361 62.2386 23.0473 60.7151 25.8523 57.9538C28.6612 55.1847 30.2362 51.4913 30.2917 47.5477C30.3452 43.5684 28.8477 39.8074 26.0745 36.9552Z" fill="#FFCE54"></path><path d="M12.2923 46.4065C12.8199 46.9341 12.8199 47.7911 12.2923 48.3187C11.7627 48.8504 10.9058 48.8504 10.3762 48.3187C9.84856 47.7911 9.84856 46.9341 10.3762 46.4065C10.9057 45.8749 11.7627 45.8749 12.2923 46.4065Z" fill="#080808"></path><path d="M62.0049 44.6523H42.4778C41.732 44.6523 41.125 45.2593 41.125 46.0092C41.125 46.7551 41.732 47.3621 42.4778 47.3621H64.7065L62.0049 44.6523Z" fill="#FFCE54"></path><path d="M11.3352 48.7141C10.8313 48.7141 10.3492 48.4363 10.1153 47.9524C8.40938 44.4413 7.34816 40.5533 6.95929 36.3958C6.65384 33.092 6.76886 29.6106 7.30639 26.0482C8.21691 19.9941 10.016 15.8304 10.0914 15.6559C10.3909 14.9695 11.1903 14.6581 11.8746 14.9576C12.5609 15.2551 12.8744 16.0545 12.5749 16.7389C12.557 16.7785 10.8234 20.8073 9.97232 26.5282C9.4744 29.8647 9.37131 33.1159 9.6609 36.1935C10.022 40.0059 10.9939 43.5647 12.551 46.7703C12.8783 47.4407 12.5986 48.2541 11.9262 48.5794C11.7359 48.6704 11.5335 48.7141 11.3352 48.7141Z" fill="#656D78"></path><path d="M44.0974 13.5172L37.8549 12.2716L35.4825 8.68114C35.2325 8.30028 34.809 8.07227 34.3528 8.07227H24.8709C24.4148 8.07227 23.9903 8.3004 23.7403 8.68114L21.4611 12.1347H18.1028C17.3549 12.1347 16.75 12.7417 16.75 13.4894V20.2596C16.75 21.0075 17.3551 21.6143 18.1028 21.6143H43.8316C44.5794 21.6143 45.1864 21.0073 45.1864 20.2596V14.8462C45.1864 14.1996 44.7301 13.6442 44.0974 13.5172Z" fill="#F5F7FA"></path><path d="M24.8782 18.2285C23.0116 18.2285 21.4922 19.748 21.4922 21.6145C21.4922 23.4812 23.0117 25.0007 24.8782 25.0007C26.7448 25.0007 28.2623 23.4812 28.2623 21.6145C28.2623 19.748 26.7448 18.2285 24.8782 18.2285Z" fill="#434A54"></path><path d="M37.0648 18.2285C35.1982 18.2285 33.6797 19.748 33.6797 21.6145C33.6797 23.4812 35.1982 25.0007 37.0648 25.0007C38.9313 25.0007 40.4488 23.4812 40.4488 21.6145C40.4488 19.748 38.9313 18.2285 37.0648 18.2285Z" fill="#434A54"></path></g><defs><clipPath id="clip0_59_28393"><rect width="65" height="65" fill="white" transform="translate(0.5)"></rect></clipPath></defs></svg>