<svg xmlns="http://www.w3.org/2000/svg" width="66" height="65" viewBox="0 0 66 65" fill="none"><path fill-rule="evenodd" clip-rule="evenodd" d="M40.9766 19.0998H53.6054C53.8269 19.0965 54.0461 19.1457 54.245 19.2434C54.4438 19.3412 54.6167 19.4846 54.7495 19.662L64.1821 31.8876C64.3811 32.1384 64.4873 32.4502 64.4829 32.7703V46.3755C64.4824 46.7586 64.33 47.1258 64.0591 47.3967C63.7882 47.6676 63.421 47.82 63.038 47.8206H59.8175C59.8175 45.7492 58.9947 43.7627 57.53 42.298C56.0653 40.8333 54.0788 40.0105 52.0074 40.0105C49.936 40.0105 47.9495 40.8333 46.4848 42.298C45.0201 43.7627 44.1972 45.7492 44.1972 47.8206H40.9766V19.0998Z" fill="#FFD064"></path><path fill-rule="evenodd" clip-rule="evenodd" d="M57.7949 23.6074L64.1836 31.8877H49.2351C48.8002 31.8864 48.3834 31.7131 48.0759 31.4055C47.7684 31.098 47.595 30.6812 47.5938 30.2463V25.2488C47.595 24.8139 47.7683 24.3971 48.0759 24.0895C48.3834 23.782 48.8002 23.6087 49.2351 23.6074H57.7949Z" fill="#E5ECF1"></path><path fill-rule="evenodd" clip-rule="evenodd" d="M2.96061 43.0918H40.9777V47.8204H2.96061C2.57747 47.8198 2.21021 47.6673 1.93934 47.3963C1.66847 47.1254 1.5161 46.7581 1.51562 46.3749V44.5369C1.5162 44.1538 1.66861 43.7866 1.93947 43.5157C2.21033 43.2449 2.57754 43.0924 2.96061 43.0918Z" fill="#685E68"></path><path d="M59.7649 48.6853C60.2351 44.3977 57.1404 40.5407 52.8528 40.0706C48.5652 39.6004 44.7082 42.6951 44.238 46.9827C43.7679 51.2703 46.8625 55.1272 51.1501 55.5974C55.4378 56.0676 59.2947 52.9729 59.7649 48.6853Z" fill="#837683"></path><path d="M35.014 9.35156H6.32981C4.93307 9.35156 3.80078 10.4838 3.80078 11.8806V40.5648C3.80078 41.9615 4.93307 43.0938 6.32981 43.0938H35.014C36.4107 43.0938 37.543 41.9615 37.543 40.5648V11.8806C37.543 10.4838 36.4107 9.35156 35.014 9.35156Z" fill="#E3A76F"></path><path fill-rule="evenodd" clip-rule="evenodd" d="M15.5156 9.35156H25.8279V20.5491L23.3159 18.7241L20.6718 16.8029L18.0276 18.7241L15.5156 20.5491V9.35156Z" fill="#E5ECF1"></path><path fill-rule="evenodd" clip-rule="evenodd" d="M9.07031 36.0527C8.80095 36.0527 8.54262 35.9457 8.35216 35.7553C8.16169 35.5648 8.05469 35.3065 8.05469 35.0371C8.05469 34.7677 8.16169 34.5094 8.35216 34.319C8.54262 34.1285 8.80095 34.0215 9.07031 34.0215H13.2401C13.5094 34.0215 13.7678 34.1285 13.9582 34.319C14.1487 34.5094 14.2557 34.7677 14.2557 35.0371C14.2557 35.3065 14.1487 35.5648 13.9582 35.7553C13.7678 35.9457 13.5094 36.0527 13.2401 36.0527H9.07031ZM9.07031 38.678C8.80095 38.678 8.54262 38.571 8.35216 38.3805C8.16169 38.1901 8.05469 37.9317 8.05469 37.6624C8.05469 37.393 8.16169 37.1347 8.35216 36.9442C8.54262 36.7537 8.80095 36.6467 9.07031 36.6467H17.4619C17.7313 36.6467 17.9896 36.7537 18.1801 36.9442C18.3705 37.1347 18.4775 37.393 18.4775 37.6624C18.4775 37.9317 18.3705 38.1901 18.1801 38.3805C17.9896 38.571 17.7313 38.678 17.4619 38.678H9.07031Z" fill="#E5ECF1"></path><path d="M27.6829 48.6853C28.153 44.3977 25.0584 40.5407 20.7708 40.0706C16.4831 39.6004 12.6262 42.6951 12.156 46.9827C11.6858 51.2703 14.7805 55.1272 19.0681 55.5974C23.3557 56.0676 27.2127 52.9729 27.6829 48.6853Z" fill="#837683"></path></svg>