<svg xmlns="http://www.w3.org/2000/svg" width="66" height="65" viewBox="0 0 66 65" fill="none"><path d="M59.4062 42.6562V59.9219H52.5366C51.0431 59.9219 49.5702 60.2696 48.2344 60.9375C46.8986 61.6054 45.4256 61.9531 43.9321 61.9531H26.9062C25.8288 61.9531 24.7955 61.5251 24.0336 60.7632C23.2718 60.0014 22.8438 58.9681 22.8438 57.8906V42.6562H59.4062Z" fill="#DEAE7E"></path><path d="M44.1719 15.5594V54.8438C44.1717 55.6518 43.8506 56.4266 43.2792 56.998C42.7079 57.5693 41.933 57.8904 41.125 57.8906H9.64062C8.83261 57.8904 8.05774 57.5693 7.48639 56.998C6.91503 56.4266 6.59396 55.6518 6.59375 54.8438V6.09375C6.59396 5.28573 6.91503 4.51087 7.48639 3.93951C8.05774 3.36816 8.83261 3.04708 9.64062 3.04688H30.7986C31.5608 3.04814 32.2951 3.3338 32.8578 3.84796L43.1842 13.3136C43.4953 13.5991 43.7438 13.9462 43.9138 14.3328C44.0838 14.7194 44.1717 15.1371 44.1719 15.5594Z" fill="#C8DBF7"></path><path d="M43.8608 14.2178H35.0312C34.2232 14.2176 33.4484 13.8965 32.877 13.3251C32.3057 12.7538 31.9846 11.9789 31.9844 11.1709V3.28711C32.3057 3.42188 32.6012 3.61131 32.8578 3.84699L43.1842 13.3126C43.4645 13.5692 43.694 13.8763 43.8608 14.2178Z" fill="#E0EDFF"></path><path d="M10.6562 13.2031H12.6875V18.2812H10.6562V13.2031Z" fill="#A2B8E0"></path><path d="M14.7188 16.25H16.75V18.2812H14.7188V16.25Z" fill="#A2B8E0"></path><path d="M14.7188 7.10938H16.75V14.2188H14.7188V7.10938Z" fill="#A2B8E0"></path><path d="M11.6719 42.6562H14.7188V44.6875H11.6719V42.6562Z" fill="#A2B8E0"></path><path d="M16.75 42.6562H24.875V44.6875H16.75V42.6562Z" fill="#A2B8E0"></path><path d="M11.6719 46.7188H17.7656V48.75H11.6719V46.7188Z" fill="#A2B8E0"></path><path d="M15.7344 51.7969H17.7656V53.8281H15.7344V51.7969Z" fill="#A2B8E0"></path><path d="M19.7969 51.7969H29.9531V53.8281H19.7969V51.7969Z" fill="#A2B8E0"></path><path d="M31.9844 51.7969H34.0156V53.8281H31.9844V51.7969Z" fill="#A2B8E0"></path><path d="M35.0312 23.3594V34.5312L28.9375 38.5938H22.8438L16.75 34.5312V23.3594H35.0312Z" fill="#F6BB00"></path><path d="M25.8906 28.4375L35.0312 23.3594L25.8906 18.2812L16.75 23.3594L25.8906 28.4375Z" fill="#EDA600"></path><path d="M49.25 52.8125C48.304 52.8125 47.3709 52.5922 46.5248 52.1692C45.6786 51.7461 44.9426 51.1318 44.375 50.375L43.1562 48.75H34.0156C33.2075 48.75 32.4326 48.429 31.8612 47.8576C31.2898 47.2862 30.9688 46.5112 30.9688 45.7031C30.9688 44.895 31.2898 44.1201 31.8612 43.5487C32.4326 42.9773 33.2075 42.6562 34.0156 42.6562H59.4062V52.8125H49.25Z" fill="#F5C99D"></path></svg>