<svg xmlns="http://www.w3.org/2000/svg" width="82" height="65" viewBox="0 0 82 65" fill="none"><path d="M25.199 11.8479L17.3919 18.6436L8.67155 11.8479L0.480469 0H17.0081L25.199 11.8479Z" fill="#D2E5FF"></path><path d="M40.9448 0H57.4725L49.3203 11.8479L40.7501 16.4273L32.7539 11.8479L40.9448 0Z" fill="#D0E4FC"></path><path d="M8.67188 11.8457V64.9978H26.8466L28.9958 54.7129L35.0265 39.7497L28.9958 11.8457H8.67188Z" fill="#D0E4FC"></path><path d="M28.9961 11.8457H49.3202V48.8578H28.9961V11.8457Z" fill="#AED5FC"></path><path d="M49.317 64.9993H26.8438V32.2351L49.317 26.5039L54.65 46.8847L49.317 64.9993Z" fill="#FDCE33"></path><path d="M71.8034 64.9993H49.3203V26.5039L71.8034 32.6699V64.9993Z" fill="#FDAE55"></path><path d="M39.8688 43.1004H17.3906L28.9942 26.5039H49.3183L39.8688 43.1004Z" fill="#FDEE33"></path><path d="M81.5231 43.1004H59.0449L49.3203 26.5039H70.2206L81.5231 43.1004Z" fill="#FDCE33"></path></svg>