<svg xmlns="http://www.w3.org/2000/svg" width="66" height="65" viewBox="0 0 66 65" fill="none"><g clip-path="url(#clip0_59_28599)"><path d="M63.4695 2.46875H47.9219C46.8001 2.46875 45.8906 3.37824 45.8906 4.5V60.4982C45.8906 61.6199 46.8001 62.5294 47.9219 62.5294H63.4697C64.5914 62.5294 65.5009 61.6199 65.5009 60.4982V4.5C65.5008 3.37824 64.5913 2.46875 63.4695 2.46875Z" fill="#FDCE33"></path><path d="M47.921 2.46875H2.53125C1.40949 2.46875 0.5 3.37824 0.5 4.5V60.4982C0.5 61.6199 1.40949 62.5294 2.53125 62.5294H47.921C49.0427 62.5294 49.9522 61.6199 49.9522 60.4982V4.5C49.9522 3.37824 49.0427 2.46875 47.921 2.46875Z" fill="#FDEE33"></path><path d="M30.4941 2.46875H19.957C18.8353 2.46875 17.9258 3.37824 17.9258 4.5V18.6199C17.9258 19.7422 18.8353 20.6512 19.957 20.6512H30.4941C31.6159 20.6512 32.5254 19.7422 32.5254 18.6199V4.5C32.5254 3.37824 31.6159 2.46875 30.4941 2.46875Z" fill="#EDEDED"></path><path d="M30.4941 2.46875H27.8281C28.9499 2.46875 29.8594 3.37824 29.8594 4.5V18.6199C29.8594 19.7422 28.9499 20.6512 27.8281 20.6512H30.4941C31.6159 20.6512 32.5254 19.7422 32.5254 18.6199V4.5C32.5254 3.37824 31.6159 2.46875 30.4941 2.46875Z" fill="#DFDFDF"></path><path d="M37.3154 30.7477C37.2147 29.8338 36.5125 29.1012 35.6035 28.9624C29.6546 28.0529 26.567 25.5232 26.5462 25.5063C25.7865 24.8547 24.6637 24.8547 23.9039 25.5063C23.8742 25.5316 20.7926 28.0532 14.8466 28.9624C13.9376 29.1011 13.2354 29.8336 13.1348 30.7477C13.0663 31.3676 11.6083 46.0049 24.2392 53.0175C24.5457 53.1876 24.8854 53.2729 25.2251 53.2729C25.5647 53.2729 25.9045 53.1876 26.2111 53.0175C38.8417 46.0048 37.3838 31.3675 37.3154 30.7477Z" fill="#7FC6A6"></path><path d="M37.3161 30.7477C37.2154 29.8338 36.5132 29.1012 35.6042 28.9624C29.6553 28.0529 26.5677 25.5232 26.5469 25.5063C25.7872 24.8547 24.6644 24.8547 23.9046 25.5063C23.8987 25.5113 23.7633 25.6203 23.5124 25.794C24.5116 26.4833 27.43 28.2368 32.1764 28.9624C33.0854 29.1011 33.7875 29.8336 33.8882 30.7477C33.9551 31.3552 35.3479 45.4232 23.5117 52.5851C23.7519 52.7303 23.9883 52.8782 24.2397 53.0175C24.5461 53.1876 24.8859 53.2729 25.2256 53.2729C25.5652 53.2729 25.9049 53.1876 26.2115 53.0175C38.8424 46.0048 37.3845 31.3675 37.3161 30.7477Z" fill="#439F47"></path></g><defs><clipPath id="clip0_59_28599"><rect width="65" height="65" fill="white" transform="translate(0.5)"></rect></clipPath></defs></svg>